<svg xmlns="http://www.w3.org/2000/svg" xmlns:xlink="http://www.w3.org/1999/xlink" version="1.1" id="Layer_1" x="0px" y="0px" width="100%" viewBox="0 0 1366 466" enable-background="new 0 0 1366 466" xml:space="preserve">

<path fill="#163357" opacity="1.000000" stroke="none" d=" M1289.468628,467.000000   C1287.440186,466.068329 1285.989502,464.793030 1284.303711,464.258423   C1268.154053,459.136780 1255.031372,450.278809 1247.331299,434.657379   C1243.894897,427.685669 1244.008301,427.391479 1251.375854,425.054810   C1258.308960,422.855957 1265.367554,421.036316 1272.239746,418.669189   C1275.424072,417.572357 1277.336670,418.522797 1278.964966,420.994690   C1284.456909,429.332367 1292.364868,433.584198 1302.127686,434.527161   C1316.929932,435.956848 1331.046753,429.190216 1331.000977,411.149261   C1330.993408,408.166229 1331.000000,405.183136 1331.000000,401.915894   C1326.028931,404.253387 1321.631104,407.026398 1316.833252,408.463776   C1284.048828,418.285400 1247.172729,400.707092 1240.275024,362.649841   C1237.072266,344.979034 1239.515625,327.892822 1250.500732,312.878082   C1261.377686,298.010986 1276.150513,290.087708 1294.453247,289.060059   C1308.455566,288.273865 1321.560425,290.921082 1331.936035,301.151733   C1332.414673,300.722656 1332.823120,300.534027 1332.839233,300.316437   C1333.452759,292.002655 1333.447876,292.001770 1342.065186,292.001038   C1350.064331,292.000336 1358.063599,292.000824 1366.531372,292.000366   C1367.000000,335.687561 1367.000000,379.375122 1366.632324,423.562500   C1365.920532,424.398346 1365.374512,424.677246 1365.260986,425.078522   C1359.328369,446.045868 1345.071533,458.518372 1324.796875,464.935333   C1323.751465,465.266205 1322.927246,466.295746 1322.000000,467.000000   C1311.312378,467.000000 1300.624878,467.000000 1289.468628,467.000000  M1283.481445,329.990204   C1272.144409,341.683990 1272.537231,359.176025 1284.400269,370.904510   C1294.173462,380.566833 1314.419800,380.750854 1324.058228,371.264954   C1333.976929,361.503326 1333.192505,338.878143 1322.765137,328.218781   C1313.469971,318.716858 1293.686646,319.180298 1283.481445,329.990204  z"/>
<path fill="#F43BA6" opacity="1.000000" stroke="none" d=" M1.000000,183.468658   C30.455519,183.000000 59.911037,183.000000 89.682747,183.000000   C89.682747,213.328354 89.682747,243.372711 89.682747,274.000153   C60.433784,274.000153 31.185549,274.000153 1.468657,274.000061   C1.000000,243.979111 1.000000,213.958206 1.000000,183.468658  z"/>
<path fill="#FFBC00" opacity="1.000000" stroke="none" d=" M261.531342,1.000000   C258.842072,6.987725 255.850235,13.070351 252.493332,18.944357   C244.298508,33.283859 235.941910,47.530987 227.629852,61.803310   C226.591507,63.586189 225.429062,65.296783 223.575745,68.222153   C210.497147,45.552521 197.844391,23.621000 185.095825,1.344739   C210.354233,1.000000 235.708450,1.000000 261.531342,1.000000  z"/>

<path fill="#163357" opacity="1.000000" stroke="none" d=" M291.000885,199.088715   C291.000702,220.737747 290.948730,241.899811 291.053711,263.061096   C291.070282,266.398163 290.153107,268.356201 287.020355,270.140045   C267.122528,281.470154 247.454239,293.204102 227.523422,304.474396   C225.574783,305.576324 221.859573,305.334656 219.810272,304.195251   C204.006149,295.407898 188.409302,286.247620 172.751892,277.196564   C169.448563,275.286987 166.318741,272.968842 162.825928,271.522552   C158.302582,269.649506 156.839859,266.792572 156.892624,261.923370   C157.136383,239.431168 157.108139,216.933838 156.899200,194.440948   C156.862411,190.480240 158.408157,188.486053 161.608978,186.660477   C180.927002,175.642593 200.182159,164.513412 219.386017,153.297623   C222.417709,151.527008 224.737518,151.459579 227.913803,153.327454   C247.795151,165.019119 267.801514,176.500122 287.847565,187.908371   C292.585480,190.604752 290.471588,194.893463 291.000885,199.088715  z"/>
<path fill="#163357" opacity="1.000000" stroke="none" d=" M663.000000,100.000000   C663.000000,115.659996 662.925232,130.820435 663.016418,145.979889   C663.178772,172.960251 650.342834,192.340515 626.586426,203.413437   C600.983643,215.347000 575.109009,213.595108 551.278015,197.933640   C535.679443,187.682465 526.475037,172.646454 525.085754,153.739227   C524.185852,141.492844 524.118530,129.171326 524.043518,116.881248   C523.894958,92.559525 524.092834,68.235573 523.914185,43.914261   C523.881897,39.514942 524.867981,37.666637 529.681213,37.894348   C537.826050,38.279682 546.011780,38.234344 554.161804,37.908104   C558.704773,37.726257 560.127502,39.100807 560.100159,43.756798   C559.910156,76.074791 559.801819,108.396118 560.077942,140.712875   C560.233704,158.947021 569.262146,172.503616 587.663574,176.364731   C608.365173,180.708450 626.805725,164.218277 626.933655,145.613220   C627.166077,111.796371 627.084045,77.976334 626.902832,44.158855   C626.877686,39.484428 627.956726,37.653400 632.949707,37.891968   C641.260376,38.289066 649.608826,38.170811 657.931274,37.926414   C661.840271,37.811626 663.115356,39.055988 663.078003,43.025665   C662.900757,61.849018 662.999512,80.674973 663.000000,100.000000  z"/>
<path fill="#163357" opacity="1.000000" stroke="none" d=" M543.751465,396.254639   C529.483337,381.822632 521.340393,364.907928 518.871948,345.044617   C515.935303,321.413757 519.855286,299.379303 533.315491,279.534271   C546.487488,260.114166 565.277527,249.004211 588.140625,245.158936   C607.587891,241.888153 626.533752,243.972748 644.181519,253.605759   C657.930237,261.110474 668.948547,271.205444 675.037109,286.027740   C676.103394,288.623474 676.593994,290.764282 673.454529,292.245636   C664.007751,296.703094 654.590698,301.223572 644.861267,305.862885   C640.762207,297.025787 635.676086,289.131714 627.230957,284.122925   C611.253052,274.646423 594.770325,275.141663 579.026550,283.807251   C558.178772,295.282135 551.831055,319.395874 554.583496,340.589691   C556.202637,353.057068 560.585327,363.956482 569.439697,372.920776   C578.300537,381.891571 589.110840,385.759125 601.699463,386.117554   C615.152832,386.500641 626.565857,382.533661 635.719421,372.675537   C638.175964,370.029877 640.203552,366.903839 642.010986,363.758636   C644.178101,359.987579 646.962402,359.132599 650.751160,360.919525   C657.962708,364.320709 665.130676,367.816986 672.386292,371.121063   C675.831543,372.689941 676.544922,374.675873 674.971436,378.219360   C666.442749,397.425354 651.243530,409.219727 631.968933,415.685760   C612.713867,422.145233 593.036987,421.879730 573.860901,414.966278   C562.723877,410.951080 552.479614,405.046387 543.751465,396.254639  z"/>
<path fill="#163357" opacity="1.000000" stroke="none" d=" M705.259216,330.666290   C703.235779,329.797089 701.503723,329.194794 699.861938,328.404694   C691.999634,324.621033 691.169800,322.104401 695.959473,314.283051   C702.178528,304.127350 711.273254,297.186707 722.422913,293.431641   C745.084778,285.799286 766.956177,286.538940 786.575806,301.890808   C795.635559,308.979797 800.766907,318.721649 800.897095,330.261719   C801.205261,357.588715 800.936462,384.921814 801.068787,412.251648   C801.087036,416.026215 799.817078,417.185455 796.150757,417.064941   C789.159058,416.835022 782.140015,416.726196 775.160217,417.095001   C770.457092,417.343506 768.241943,416.028442 768.962708,411.065491   C769.146667,409.798859 768.868713,408.465149 768.750549,406.121826   C766.877625,407.805695 765.652954,409.019623 764.315002,410.092316   C749.476318,421.988953 718.965881,423.455658 702.843262,413.307526   C680.706909,399.374146 682.969849,367.776855 701.993225,353.933197   C712.055481,346.610840 723.604919,344.093140 735.405762,342.066559   C744.213440,340.554016 753.094238,339.451660 761.869385,337.782745   C763.115906,337.545685 765.110657,334.678925 764.769775,333.808746   C763.380005,330.261627 761.935669,326.192017 759.205566,323.814453   C750.545166,316.272308 738.421082,318.234131 730.240417,324.497925   C726.916504,327.042999 724.375488,330.780334 721.987427,334.318878   C720.361328,336.728394 718.966736,337.535370 716.331665,336.147858   C712.800415,334.288452 709.176392,332.605438 705.259216,330.666290  M754.222961,388.885620   C762.170898,382.827240 766.247009,375.153839 764.595215,364.641449   C761.404968,365.139893 758.609253,365.462128 755.863464,366.027252   C747.776001,367.691864 739.573059,368.996674 731.680298,371.336182   C726.411499,372.897919 723.381287,378.699188 724.164307,383.000122   C725.091553,388.092560 730.330627,392.601044 735.829346,392.976959   C742.090088,393.404999 748.098572,392.596008 754.222961,388.885620  z"/>
<path fill="#163357" opacity="1.000000" stroke="none" d=" M946.935181,292.891785   C967.635193,286.381561 987.309875,287.034515 1005.607361,298.896881   C1017.927368,306.884033 1023.939819,318.643768 1023.979980,333.313385   C1024.050781,359.138855 1023.845947,384.966400 1024.128174,410.789001   C1024.185425,416.026184 1022.546143,417.381317 1017.611572,417.097809   C1010.802734,416.706635 1003.939392,416.722076 997.128479,417.094849   C992.397705,417.353821 990.203064,415.989868 990.968506,411.041016   C991.112915,410.107483 990.860413,409.112610 990.850586,408.975800   C983.584778,412.142853 976.537109,416.479645 968.892334,418.277679   C954.023621,421.774719 939.129028,421.244781 925.762268,412.395386   C909.345154,401.526611 905.430664,383.234863 914.884216,365.935852   C921.333923,354.133514 931.709045,348.075226 943.930115,345.196259   C955.977661,342.358154 968.393799,341.113861 980.592346,338.866638   C983.458496,338.338623 988.177612,336.885193 988.398010,335.338226   C988.815491,332.406738 987.409668,328.356415 985.331055,326.072632   C974.535828,314.211884 953.925110,317.718842 945.783142,332.752563   C943.734070,336.536133 942.183960,337.418762 938.244873,335.226013   C932.162109,331.840088 925.684875,329.165527 919.397095,326.143280   C917.944763,325.445221 916.581848,324.561249 915.081421,323.708038   C920.644775,307.956940 931.359009,298.177094 946.935181,292.891785  M947.062805,380.770508   C947.322815,386.943359 951.943787,392.265442 957.984253,392.911621   C968.449951,394.031372 977.521301,391.021240 983.896362,382.399292   C987.712952,377.237488 990.446838,371.385162 988.257141,364.194000   C978.063965,366.155182 968.168945,367.975159 958.313232,369.987885   C952.737854,371.126465 948.610962,374.118988 947.062805,380.770508  z"/>
<path fill="#163357" opacity="1.000000" stroke="none" d=" M1120.894897,407.037720   C1111.501221,400.912170 1104.184814,392.796844 1099.922119,382.503510   C1090.388306,359.482208 1091.347412,336.961212 1106.020874,316.285980   C1116.644653,301.316864 1131.445435,292.532379 1149.898071,289.879028   C1169.459717,287.066315 1187.312988,290.885223 1202.899536,303.055511   C1217.283447,314.286743 1225.708496,328.915924 1227.124390,347.568329   C1228.306396,363.139954 1226.008301,377.775543 1217.057129,390.649719   C1200.766724,414.079834 1177.869141,422.844696 1149.965698,419.086212   C1144.780151,418.387726 1139.750488,416.532288 1134.288086,414.684753   C1129.583252,411.785034 1125.239136,409.411377 1120.894897,407.037720  M1130.902466,361.493134   C1133.015747,366.486786 1134.379883,371.992523 1137.379395,376.380280   C1147.268799,390.846497 1172.657959,391.017151 1183.476440,377.350861   C1190.064087,369.029053 1192.093628,359.842377 1191.045654,349.517334   C1189.466919,333.963684 1175.693237,319.462677 1156.985107,321.788239   C1136.648315,324.316254 1127.258057,345.176086 1130.902466,361.493134  z"/>
<path fill="#163357" opacity="1.000000" stroke="none" d=" M1068.343506,159.361771   C1059.838501,181.023193 1051.824951,202.467575 1043.013916,223.579056   C1037.530884,236.716034 1029.146729,247.901321 1015.469421,253.716095   C1003.263428,258.905396 990.717712,259.401550 978.175964,254.810959   C976.903259,254.345093 975.219788,252.670578 975.187805,251.516418   C974.939697,242.572998 975.050842,233.619614 975.050842,224.711166   C981.730957,225.168015 987.784180,225.865829 993.844055,225.928848   C1002.584534,226.019745 1013.975464,215.257996 1013.605713,206.688324   C1013.436157,202.758789 1011.009216,198.902588 1009.489807,195.059036   C995.466858,159.586014 981.412476,124.125443 967.398499,88.648872   C966.810181,87.159546 966.529541,85.548676 965.962830,83.471329   C967.867981,83.282150 969.286011,83.025047 970.705139,83.019302   C979.864990,82.982246 989.031616,83.202011 998.181824,82.902382   C1001.939514,82.779335 1003.613403,84.433594 1004.732239,87.559708   C1008.811890,98.959007 1012.848633,110.375076 1017.078186,121.718933   C1021.751648,134.253006 1026.619141,146.714691 1031.917358,160.553467   C1034.069092,154.580032 1035.732544,149.807465 1037.502808,145.074768   C1044.590332,126.126259 1051.822998,107.230782 1058.722534,88.214287   C1060.060913,84.525490 1061.662109,82.820183 1065.765869,82.917336   C1076.226929,83.165001 1086.697876,82.999786 1098.267944,82.999786   C1088.137085,108.864265 1078.317505,133.934158 1068.343506,159.361771  z"/>
<path fill="#163357" opacity="1.000000" stroke="none" d=" M730.315491,116.212067   C722.402344,121.705833 721.155029,129.784622 721.072815,138.019226   C720.858459,159.514465 720.877014,181.014511 721.099426,202.509583   C721.145874,207.002899 719.721680,208.251709 715.392273,208.088318   C707.238220,207.780579 699.060669,207.856308 690.900269,208.063919   C687.298279,208.155579 685.918884,207.141754 685.930542,203.304504   C686.047852,164.809570 686.043091,126.314018 685.934998,87.819031   C685.924622,84.131683 687.023315,82.814964 690.775879,82.930336   C698.434326,83.165787 706.113647,83.216232 713.767517,82.915215   C718.016602,82.748100 719.509521,84.291580 719.034424,88.363228   C718.825989,90.149529 718.999329,91.980370 718.999329,95.098099   C725.371399,87.030952 732.982361,82.949287 741.809143,81.660980   C758.700684,79.195595 774.830688,80.911034 787.783325,93.468468   C794.738647,100.211609 799.558289,108.808067 799.832336,118.529060   C800.634277,146.972885 800.624329,175.439072 801.044067,203.894867   C801.095093,207.356171 799.550842,208.082901 796.510742,208.040497   C787.680176,207.917297 778.841614,207.819458 770.016968,208.079086   C766.017090,208.196762 764.902466,206.800369 764.928467,202.919250   C765.077942,180.589661 765.036926,158.258438 764.985046,135.927963   C764.956116,123.495544 759.307190,115.642815 748.127197,112.618034   C741.822388,110.912262 735.976196,112.437492 730.315491,116.212067  z"/>
<path fill="#F43BA6" opacity="1.000000" stroke="none" d=" M363.107239,183.002945   C391.195068,183.002945 418.796661,183.002945 446.698242,183.002945   C446.698242,213.347824 446.698242,243.378586 446.698242,273.705292   C416.989380,273.705292 387.291229,273.705292 357.296539,273.705292   C357.296539,243.655380 357.296539,213.625061 357.296539,183.002945   C359.086304,183.002945 360.853668,183.002945 363.107239,183.002945  z"/>
<path fill="#F43BA6" opacity="1.000000" stroke="none" d=" M373.005676,397.096283   C372.839874,398.730988 373.037537,400.716766 372.319763,401.136261   C347.652649,415.553711 322.898956,429.822937 297.222534,444.653534   C293.774261,439.428162 290.153717,434.475220 287.087708,429.199951   C275.910248,409.968292 264.962952,390.602936 253.822327,371.349670   C251.231384,366.872040 254.969772,364.903534 257.336609,363.455963   C270.532898,355.385040 283.984619,347.731445 297.357086,339.949036   C307.048401,334.308990 316.805328,328.778534 326.411865,322.997894   C328.700317,321.620850 329.742554,321.817230 331.048645,324.108124   C342.876556,344.854095 354.785553,365.553925 366.694214,386.253784   C368.719666,389.774506 370.856781,393.230927 373.005676,397.096283  z"/>
<path fill="#F43BA6" opacity="1.000000" stroke="none" d=" M162.712250,424.708069   C159.107361,430.740601 155.847305,436.549255 152.230621,442.126678   C151.605011,443.091431 149.003647,443.900848 148.098724,443.390930   C132.970886,434.866791 117.963821,426.128113 102.938721,417.421936   C94.935173,412.784302 87.001862,408.022491 78.936798,403.494995   C72.929314,400.122528 72.953758,399.908997 76.357704,394.058075   C85.745163,377.922272 94.916611,361.660889 104.195343,345.461670   C107.826172,339.122894 111.366020,332.724030 115.239769,326.535645   C117.229927,323.356354 119.297737,322.117706 123.685333,324.737427   C146.133041,338.140289 168.923843,350.970154 191.649612,363.903900   C195.079971,365.856171 195.773972,367.455750 193.515656,371.248077   C183.884262,387.421844 174.699997,403.861847 165.351746,420.204254   C164.549606,421.606537 163.741608,423.005463 162.712250,424.708069  z"/>
<path fill="#F43BA6" opacity="1.000000" stroke="none" d=" M168.995270,44.956955   C174.809723,55.134525 180.580322,64.932373 186.310913,74.753571   C188.929413,79.241226 191.656815,83.684326 193.909271,88.352936   C194.456284,89.486725 193.837753,92.319778 192.884613,92.873795   C170.144684,106.091660 147.315170,119.156738 124.426132,132.115662   C119.315140,135.009308 117.153595,134.472672 114.303391,129.612457   C105.433578,114.487534 96.745255,99.255997 88.015266,84.049324   C83.811470,76.726799 80.000397,69.150246 75.354622,62.122978   C73.265907,58.963558 74.294586,57.485809 76.607407,56.154526   C92.505257,47.003582 108.486382,37.997448 124.414787,28.899361   C131.751709,24.708611 139.085617,20.506714 146.303772,16.117235   C148.678452,14.673146 150.371628,14.230132 152.021393,16.952137   C157.619141,26.188011 163.291306,35.378777 168.995270,44.956955  z"/>
<path fill="#F43BA6" opacity="1.000000" stroke="none" d=" M329.990570,134.978745   C327.104645,134.168274 324.117706,133.281357 321.494415,131.765274   C298.318329,118.371002 275.206787,104.865021 251.705734,91.176277   C266.564331,65.440201 281.396545,39.749855 296.452759,13.671513   C304.831085,18.413807 313.015686,22.958872 321.115387,27.650537   C335.022766,35.706226 348.734558,44.111454 362.798431,51.881336   C374.232605,58.198414 374.379700,57.864758 368.035767,68.831810   C355.358490,90.747589 342.715393,112.683159 329.990570,134.978745  z"/>
<path fill="#163357" opacity="1.000000" stroke="none" d=" M896.998169,411.739594   C897.308472,415.465027 896.442261,417.655731 892.635254,417.995514   C883.377380,418.821747 874.232056,418.995239 864.994812,417.130341   C848.476379,413.795502 834.341187,399.908600 833.202637,383.152191   C831.998535,365.430359 832.305847,347.604218 832.018921,329.822540   C831.908936,323.012543 831.991028,323.079193 825.238159,322.976013   C820.779724,322.907898 814.449951,324.295563 812.360657,321.971954   C809.951904,319.293060 811.273376,313.247864 811.007812,308.662628   C810.940491,307.500702 810.969177,306.330750 811.002991,305.165894   C811.113586,301.350189 809.987305,296.720642 811.763733,293.973450   C813.226501,291.711334 818.151062,291.713531 821.523376,290.654816   C827.742920,288.702301 831.753296,283.204834 831.995667,276.374817   C832.434692,264.000000 832.434753,263.999634 845.018677,264.000183   C851.180908,264.000458 857.348755,264.161835 863.503113,263.942230   C867.053284,263.815582 868.392395,265.185486 868.013000,268.598969   C867.903320,269.585938 867.964966,270.596954 868.004639,271.594696   C868.266785,278.184601 868.544434,284.773926 868.817017,291.363434   C875.431458,291.575897 882.045776,291.795044 888.660583,291.995209   C889.991821,292.035522 891.335205,292.110107 892.655518,291.984528   C895.853210,291.680298 897.120850,292.954651 897.046692,296.251099   C896.878174,303.741882 896.879639,311.241608 897.046326,318.732483   C897.119263,322.010803 895.889282,323.125488 892.672913,323.045593   C886.015259,322.880249 879.347351,323.121429 872.689941,322.950592   C869.386169,322.865784 867.895142,323.749878 867.936829,327.401215   C868.100098,341.722351 867.877808,356.047943 868.048889,370.368896   C868.168701,380.398468 874.644348,386.664551 884.700500,386.994568   C884.866882,387.000031 885.033630,386.994751 885.200073,386.998016   C896.999390,387.230225 896.999512,387.230255 896.999451,399.280426   C896.999390,403.277557 896.998901,407.274689 896.998169,411.739594  z"/>
<path fill="#163357" opacity="1.000000" stroke="none" d=" M945.916504,82.999039   C953.994141,83.014565 953.996704,83.014565 953.998169,90.490967   C953.999451,96.987190 953.893982,103.485580 954.035278,109.978676   C954.101562,113.026268 952.904663,114.095474 949.919006,114.038910   C943.092163,113.909576 936.258850,114.108215 929.432800,113.961037   C926.331360,113.894173 924.918457,114.766708 924.949280,118.160950   C925.081116,132.651321 924.849670,147.145920 925.064026,161.634323   C925.207214,171.313919 932.371765,177.488632 943.349915,177.990112   C953.999084,178.476578 954.000549,178.476562 953.998535,189.431732   C953.997620,194.428802 954.183228,199.438858 953.849182,204.413818   C953.765381,205.662018 952.147339,207.656143 950.988831,207.851517   C939.752502,209.746460 928.619568,209.802719 917.576721,206.092438   C907.026367,202.547623 899.804932,195.577377 894.523987,186.063629   C890.383789,178.605118 888.918274,170.652435 888.973511,162.235931   C889.068481,147.744965 888.892639,133.251633 889.070251,118.762222   C889.116394,115.001816 887.850769,113.715187 884.165222,113.947517   C880.183777,114.198509 876.172485,113.933899 872.176331,114.007782   C869.211121,114.062607 867.968140,112.708481 867.991638,109.778717   C868.053040,102.117043 868.074829,94.453651 867.971985,86.792824   C867.934509,84.003868 869.064697,83.143890 871.799316,82.941261   C883.702637,82.059227 888.935791,76.214142 889.019165,64.306335   C889.093445,53.692680 887.632446,55.107048 898.281555,55.012424   C905.609985,54.947304 912.945374,55.175087 920.266235,54.930237   C924.068237,54.803078 925.210938,56.214207 925.061035,59.862732   C924.822021,65.682831 925.234863,71.532776 924.920715,77.345703   C924.690491,81.604790 925.864502,83.433739 930.445801,83.084259   C935.413940,82.705269 940.433350,82.998795 945.916504,82.999039  z"/>
<path fill="#163357" opacity="1.000000" stroke="none" d=" M1049.972168,263.010803   C1059.088257,258.576080 1067.175903,252.747467 1077.619629,250.158340   C1077.779175,252.695160 1077.985352,254.450485 1077.985962,256.205872   C1078.003174,307.815735 1077.933350,359.425812 1078.107178,411.035095   C1078.123779,415.960938 1076.608887,417.310913 1071.876099,417.097687   C1063.901001,416.738434 1055.894409,416.856262 1047.908569,417.062347   C1044.324829,417.154816 1042.922119,416.167480 1042.930908,412.319580   C1043.040039,365.038544 1043.079468,317.756836 1042.892334,270.476288   C1042.871826,265.281250 1046.779663,265.015503 1049.972168,263.010803  z"/>
<path fill="#163357" opacity="1.000000" stroke="none" d=" M819.998230,139.000000   C819.998718,121.689430 820.102112,104.877769 819.923218,88.069115   C819.881409,84.148514 821.092224,82.817192 825.039917,82.925514   C833.854675,83.167381 842.683411,83.131065 851.500610,82.939606   C855.036194,82.862839 856.060059,84.171738 856.052307,87.587234   C855.964783,126.201408 855.963989,164.815933 856.053223,203.430084   C856.061218,206.867386 854.996765,208.134140 851.483337,208.059021   C842.665955,207.870514 833.837097,207.827209 825.022705,208.075470   C821.045837,208.187485 819.897156,206.804062 819.925720,202.913528   C820.080811,181.776642 819.998718,160.638031 819.998230,139.000000  z"/>
<path fill="#FFBC00" opacity="1.000000" stroke="none" d=" M230.000000,458.000183   C214.846588,458.000183 200.193176,458.000183 184.023407,458.000183   C197.453430,434.698029 210.414780,412.209076 223.777481,389.023743   C237.143890,412.261322 249.984131,434.584167 263.453186,458.000183   C251.377747,458.000183 240.938873,458.000183 230.000000,458.000183  z"/>
<path fill="#FFBC00" opacity="1.000000" stroke="none" d=" M370.995911,323.960480   C368.453735,319.096619 365.967682,314.604309 363.074890,309.377075   C389.651672,309.377075 415.156006,309.377075 441.410919,309.377075   C428.337677,331.913269 415.433899,354.157288 401.989868,377.332672   C395.617889,366.287750 390.070343,356.592621 384.443420,346.943817   C380.030548,339.376862 375.519470,331.867188 370.995911,323.960480  z"/>
<path fill="#FFBC00" opacity="1.000000" stroke="none" d=" M18.714329,331.290894   C14.498501,324.010956 10.508912,317.032227 6.118520,309.352386   C32.667355,309.352386 58.170601,309.352386 84.696053,309.352386   C71.523933,332.034637 58.610912,354.270721 45.224697,377.321625   C35.891830,361.084167 27.416199,346.338135 18.714329,331.290894  z"/>
<path fill="#FFBC00" opacity="1.000000" stroke="none" d=" M29.000109,149.000229   C21.404787,149.000229 14.309422,149.000229 5.779704,149.000229   C19.236814,126.044579 32.110897,104.083481 45.361008,81.480942   C58.663635,104.097092 71.605141,126.099289 85.075279,149.000229   C65.673599,149.000229 47.586834,149.000229 29.000109,149.000229  z"/>
<path fill="#FFBC00" opacity="1.000000" stroke="none" d=" M414.735962,103.230988   C419.346466,111.096725 423.590240,118.754784 428.068970,126.272881   C432.403809,133.549545 436.980408,140.682205 441.918884,148.631531   C415.297241,148.631531 389.779419,148.631531 362.769623,148.631531   C375.985718,126.042580 388.837219,104.076836 402.204590,81.229355   C406.453430,88.756485 410.462708,95.859283 414.735962,103.230988  z"/>
<path fill="#163357" opacity="1.000000" stroke="none" d=" M831.028442,38.000000   C838.339172,38.002373 845.155823,38.100510 851.967773,37.963272   C854.987122,37.902439 856.077026,39.044281 856.036377,42.046139   C855.915039,51.019989 855.913208,59.997627 856.036926,68.971413   C856.078613,71.992996 854.949341,73.074646 851.950867,73.036308   C842.644470,72.917313 833.334534,72.915474 824.028198,73.037064   C821.007263,73.076523 819.918762,71.949936 819.961914,68.951202   C820.083862,60.476131 820.230896,51.989246 819.904602,43.524883   C819.733887,39.098061 821.169922,37.379002 825.550903,37.965157   C827.183716,38.183624 828.870422,38.000175 831.028442,38.000000  z"/>
<path fill="#163257" opacity="1.000000" stroke="none" d=" M1120.989380,407.370850   C1125.239136,409.411377 1129.583252,411.785034 1133.963135,414.502808   C1129.693848,412.465942 1125.388916,410.084961 1120.989380,407.370850  z"/>




</svg>